<?xml version="1.0" standalone="no"?>
<!DOCTYPE svg PUBLIC "-//W3C//DTD SVG 20010904//EN"
 "http://www.w3.org/TR/2001/REC-SVG-20010904/DTD/svg10.dtd">
<svg version="1.0" xmlns="http://www.w3.org/2000/svg"
 width="512.000000pt" height="512.000000pt" viewBox="0 0 512.000000 512.000000"
 preserveAspectRatio="xMidYMid meet">
<metadata>
Created by potrace 1.14, written by Peter Selinger 2001-2017
</metadata>
<g transform="translate(0.000000,512.000000) scale(0.100000,-0.100000)"
fill="#000000" stroke="none">
<path d="M1921 4150 c-77 -26 -147 -84 -172 -142 l-11 -28 -35 38 c-18 20 -47
51 -63 69 -94 100 -292 50 -377 -95 -22 -37 -27 -58 -27 -113 0 -68 0 -68 -37
-88 -60 -34 -136 -108 -158 -155 -13 -25 -22 -65 -22 -96 -1 -45 6 -68 54
-164 l56 -111 -32 -25 c-91 -72 -123 -135 -114 -233 3 -34 12 -75 20 -92 9
-16 37 -79 62 -140 73 -171 172 -367 264 -520 46 -77 87 -142 90 -145 4 -3 18
-21 31 -40 61 -89 155 -196 284 -325 141 -140 190 -186 366 -345 174 -157 248
-231 264 -263 31 -66 121 -133 215 -161 106 -31 160 -23 429 66 349 114 588
301 653 507 24 80 27 188 6 251 -9 25 -18 68 -22 95 -21 150 -26 520 -9 620
17 100 10 627 -10 775 -18 132 -73 184 -193 183 -122 -1 -276 -109 -342 -242
-32 -62 -65 -186 -55 -203 3 -4 1 -8 -5 -8 -5 0 -22 16 -38 36 -15 20 -40 50
-56 68 -17 17 -50 56 -76 86 -25 30 -53 62 -61 71 -14 16 -48 55 -140 164 -57
68 -209 254 -257 315 -45 57 -144 193 -170 235 -43 68 -99 120 -155 145 -63
28 -98 30 -157 10z m139 -95 c32 -16 76 -65 110 -121 36 -58 264 -361 290
-384 3 -3 25 -30 50 -60 24 -30 73 -89 108 -130 36 -41 85 -100 111 -129 89
-105 229 -266 273 -315 22 -24 40 -55 43 -76 17 -101 19 -93 -33 -132 -166
-127 -263 -325 -265 -543 -1 -108 6 -141 32 -148 43 -11 52 11 55 138 4 137
25 218 81 314 38 64 155 186 189 197 32 10 46 35 41 74 -31 248 -30 331 5 421
37 100 132 187 239 218 100 31 143 0 155 -109 19 -155 28 -571 15 -668 -17
-132 -19 -171 -19 -315 0 -140 3 -217 14 -352 2 -28 14 -90 25 -138 40 -169 2
-289 -133 -420 -130 -125 -341 -226 -663 -315 -156 -43 -263 -6 -348 122 -19
29 -63 80 -97 113 -140 135 -181 173 -189 173 -4 0 -9 3 -11 8 -1 4 -57 56
-123 117 -311 285 -476 475 -616 710 -62 103 -191 355 -234 455 -10 25 -36 85
-57 133 -47 109 -55 154 -35 194 18 34 82 93 100 92 7 0 39 -38 72 -85 33 -47
65 -91 70 -97 6 -7 24 -30 40 -52 16 -22 49 -65 72 -95 24 -30 47 -59 51 -65
54 -73 252 -313 292 -355 l53 -54 -22 -38 c-17 -30 -19 -42 -11 -58 16 -29 54
-25 82 9 13 16 51 48 86 70 34 23 62 43 62 46 0 2 -4 15 -10 29 -11 30 -35 33
-84 10 -33 -16 -35 -16 -58 7 -41 43 -152 172 -202 234 -26 33 -53 67 -59 75
-7 8 -26 33 -42 55 -16 22 -33 42 -36 45 -17 14 -312 418 -320 438 -5 13 -6
28 -3 34 4 7 2 8 -4 4 -13 -8 -92 146 -96 189 -4 39 18 93 52 128 31 33 107
80 121 75 6 -1 78 -93 160 -203 82 -110 154 -205 159 -210 5 -6 41 -53 80
-105 39 -52 77 -102 85 -110 7 -8 74 -91 149 -185 74 -93 147 -181 162 -194
29 -27 32 -43 12 -60 -24 -20 -26 -51 -5 -72 23 -23 42 -17 85 31 19 20 54 48
79 61 48 25 59 41 50 70 -9 28 -40 32 -83 10 l-40 -20 -39 42 c-39 42 -147
171 -193 232 -26 34 -364 473 -378 490 -66 84 -215 288 -227 311 -34 66 -4
155 67 200 101 64 137 56 235 -55 42 -47 88 -100 103 -117 15 -17 101 -131
190 -255 218 -299 358 -483 448 -586 l53 -62 -25 -44 c-23 -39 -24 -45 -11
-64 21 -29 51 -22 87 21 15 19 53 48 83 65 62 35 71 60 31 86 -22 15 -27 15
-57 0 l-32 -17 -42 43 c-57 60 -166 203 -421 549 -207 280 -219 300 -218 352
0 49 27 94 47 81 5 -3 7 -1 4 4 -8 12 33 42 72 53 32 10 74 4 111 -15z"/>
<path d="M3616 4061 c-25 -28 -9 -52 61 -91 153 -86 291 -225 387 -390 42 -71
100 -207 111 -258 9 -44 46 -63 74 -38 16 14 17 23 10 57 -5 22 -6 46 -3 52 4
7 4 9 -1 5 -4 -4 -22 27 -40 70 -104 256 -301 478 -523 591 -50 26 -55 26 -76
2z"/>
<path d="M3288 3952 c-19 -4 -34 -44 -23 -62 3 -6 30 -22 58 -37 148 -74 311
-217 400 -350 63 -95 121 -224 152 -336 33 -126 39 -161 49 -323 4 -62 10 -74
40 -74 42 0 49 21 42 127 -3 54 -8 112 -11 128 -32 173 -70 288 -133 409 -26
50 -50 96 -55 101 -4 6 -21 28 -37 50 -94 124 -203 223 -330 301 -83 50 -130
71 -152 66z"/>
<path d="M1042 2228 c-35 -35 26 -265 120 -453 95 -186 283 -390 438 -474 156
-83 284 -133 316 -121 26 10 37 46 19 64 -8 7 -38 21 -67 30 -99 32 -253 115
-338 183 -196 158 -331 378 -399 652 -14 58 -30 112 -34 119 -10 15 -39 16
-55 0z"/>
<path d="M884 1699 c-38 -13 -36 -37 8 -122 122 -235 343 -441 579 -541 104
-44 136 -46 145 -11 10 39 0 51 -57 69 -232 76 -482 298 -592 526 -36 75 -52
91 -83 79z"/>
</g>
</svg>
